<svg width="29" height="27" viewBox="0 0 29 27" fill="none" xmlns="http://www.w3.org/2000/svg">
<path fill-rule="evenodd" clip-rule="evenodd" d="M0.916992 26.625V6.20833C0.916992 3.45792 0.916992 2.08417 1.77158 1.22958C2.62616 0.375 3.99991 0.375 6.75033 0.375H21.3337C22.547 0.375 23.4891 0.375 24.2562 0.414375C22.6507 0.592422 21.1672 1.35636 20.0898 2.55993C19.0125 3.7635 18.4168 5.32216 18.417 6.9375V12.0417L18.2726 26.5769L14.042 25.1667L9.66699 26.625L5.29199 25.1667L0.916992 26.625ZM28.6253 12.0417H21.3337V6.9375C21.3337 5.97056 21.7178 5.04323 22.4015 4.35951C23.0852 3.67578 24.0126 3.29167 24.9795 3.29167C25.9464 3.29167 26.8738 3.67578 27.5575 4.35951C28.2412 5.04323 28.6253 5.97056 28.6253 6.9375V12.0417ZM3.83366 6.20833C3.83366 5.82156 3.9873 5.45063 4.2608 5.17714C4.53429 4.90365 4.90522 4.75 5.29199 4.75H14.042C14.4288 4.75 14.7997 4.90365 15.0732 5.17714C15.3467 5.45063 15.5003 5.82156 15.5003 6.20833C15.5003 6.59511 15.3467 6.96604 15.0732 7.23953C14.7997 7.51302 14.4288 7.66667 14.042 7.66667H5.29199C4.90522 7.66667 4.53429 7.51302 4.2608 7.23953C3.9873 6.96604 3.83366 6.59511 3.83366 6.20833ZM3.83366 12.0417C3.83366 11.6549 3.9873 11.284 4.2608 11.0105C4.53429 10.737 4.90522 10.5833 5.29199 10.5833H8.20866C8.59543 10.5833 8.96637 10.737 9.23986 11.0105C9.51335 11.284 9.66699 11.6549 9.66699 12.0417C9.66699 12.4284 9.51335 12.7994 9.23986 13.0729C8.96637 13.3464 8.59543 13.5 8.20866 13.5H5.29199C4.90522 13.5 4.53429 13.3464 4.2608 13.0729C3.9873 12.7994 3.83366 12.4284 3.83366 12.0417ZM3.83366 17.875C3.83366 17.4882 3.9873 17.1173 4.2608 16.8438C4.53429 16.5703 4.90522 16.4167 5.29199 16.4167H11.1253C11.5121 16.4167 11.883 16.5703 12.1565 16.8438C12.43 17.1173 12.5837 17.4882 12.5837 17.875C12.5837 18.2618 12.43 18.6327 12.1565 18.9062C11.883 19.1797 11.5121 19.3333 11.1253 19.3333H5.29199C4.90522 19.3333 4.53429 19.1797 4.2608 18.9062C3.9873 18.6327 3.83366 18.2618 3.83366 17.875Z" fill="#F7F7F7"/>
</svg>
