<svg width="29" height="30" viewBox="0 0 29 30" fill="none" xmlns="http://www.w3.org/2000/svg">
<path d="M23.25 1.375C24.4103 1.375 25.5231 1.83594 26.3436 2.65641C27.1641 3.47688 27.625 4.58968 27.625 5.75V8.87521C27.625 9.36229 27.625 9.60583 27.5127 9.78375C27.4545 9.87626 27.3763 9.95451 27.2838 10.0127C27.1058 10.125 26.8623 10.125 26.3752 10.125H18.875M23.25 1.375C22.0897 1.375 20.9769 1.83594 20.1564 2.65641C19.3359 3.47688 18.875 4.58968 18.875 5.75V10.125M23.25 1.375H7.20833C4.45792 1.375 3.08417 1.375 2.22958 2.22958C1.375 3.08417 1.375 4.45792 1.375 7.20833V27.625L5.75 26.1667L10.125 27.625L14.5 26.1667L18.875 27.625V10.125" stroke="#D9D9D9" stroke-width="2"/>
<path d="M7.2085 7.20831H13.0418M8.66683 13.0416H7.2085M7.2085 18.875H11.5835" stroke="#D9D9D9" stroke-width="2" stroke-linecap="round"/>
</svg>
