<svg width="29" height="31" viewBox="0 0 29 31" fill="none" xmlns="http://www.w3.org/2000/svg">
<path d="M19.739 2.41465C18.4087 0.978418 16.5507 0.1875 14.4999 0.1875C12.4382 0.1875 10.574 0.973633 9.2499 2.40098C7.91143 3.84404 7.25928 5.80527 7.4124 7.92305C7.71592 12.1012 10.8953 15.5 14.4999 15.5C18.1045 15.5 21.2784 12.1019 21.5867 7.92441C21.7419 5.82578 21.0856 3.86865 19.739 2.41465ZM26.5312 30.8125H2.46865C2.1537 30.8166 1.84179 30.7504 1.55562 30.6188C1.26945 30.4872 1.01622 30.2935 0.814356 30.0517C0.37002 29.5205 0.190918 28.7952 0.323535 28.0617C0.900489 24.8611 2.70107 22.1726 5.53115 20.2852C8.04541 18.6097 11.2303 17.6875 14.4999 17.6875C17.7695 17.6875 20.9544 18.6104 23.4687 20.2852C26.2987 22.1719 28.0993 24.8604 28.6763 28.061C28.8089 28.7945 28.6298 29.5198 28.1854 30.051C27.9836 30.2929 27.7304 30.4868 27.4443 30.6185C27.1581 30.7502 26.8462 30.8165 26.5312 30.8125Z" fill="#F7F7F7"/>
</svg>
