<svg width="29" height="31" viewBox="0 0 29 31" fill="none" xmlns="http://www.w3.org/2000/svg">
<path d="M28.2726 11.8148L25.8372 26.3981C25.6728 27.4125 25.1565 28.3367 24.3789 29.0085C23.5508 29.6702 22.5222 30.0302 21.4622 30.0294H7.44764C6.42289 30.0204 5.43382 29.6519 4.65294 28.9883C3.87205 28.3247 3.34889 27.408 3.17472 26.3981L0.739303 11.8148C0.607411 10.9734 0.723984 10.1117 1.07472 9.33562C1.42534 8.56349 1.99279 7.9099 2.70805 7.45437L12.1581 1.62103C12.8485 1.19515 13.6437 0.969604 14.4549 0.969604C15.2661 0.969604 16.0614 1.19515 16.7518 1.62103L26.1872 7.45437C26.9266 7.89187 27.5158 8.54374 27.8789 9.32103C28.2523 10.0955 28.3893 10.9629 28.2726 11.8148Z" fill="#F7F7F7"/>
</svg>
