<svg width="35" height="35" viewBox="0 0 35 35" fill="none" xmlns="http://www.w3.org/2000/svg">
<path d="M28.6316 10.3688L19.1903 4.50626C18.6738 4.18375 18.077 4.01276 17.468 4.01276C16.8591 4.01276 16.2623 4.18375 15.7458 4.50626L6.30597 10.4023C5.76923 10.7408 5.34324 11.2289 5.08048 11.8065C4.81773 12.3841 4.72969 13.0259 4.82722 13.6529L7.26263 28.2756C7.39136 29.0411 7.78966 29.7353 8.38555 30.2328C8.98144 30.7303 9.73562 30.9982 10.5118 30.9881H24.4856C25.262 30.9985 26.0165 30.7308 26.6127 30.2333C27.2089 29.7358 27.6074 29.0414 27.7362 28.2756L30.1716 13.6529C30.2695 13.0144 30.1751 12.3611 29.9003 11.7765C29.6255 11.1918 29.1828 10.7023 28.6287 10.3702" stroke="#D9D9D9" stroke-width="2" stroke-linecap="round" stroke-linejoin="round"/>
</svg>
